<?xml version="1.0" encoding="UTF-8"?>
<!-- Created with Inkscape (http://www.inkscape.org/) -->
<svg width="210mm" height="297mm" version="1.1" viewBox="0 0 210 297" xmlns="http://www.w3.org/2000/svg">
 <g stroke="#000" stroke-width=".1">
  <path d="m101.89 145.12c-0.0852-0.0469-0.25587-0.14072-0.38817-0.2303-0.13229-0.0896-0.22617-0.1749-0.30724-0.25595-0.0811-0.081-0.14937-0.15787-0.21765-0.2432-0.0683-0.0853-0.13656-0.17921-0.20056-0.26454-0.064-0.0853-0.12374-0.16216-0.16224-0.26457-0.0385-0.1024-0.0556-0.23041-0.0683-0.31997-0.0128-0.0896-0.0213-0.14085-0.0299-0.22193-9e-3 -0.0811-0.0171-0.19203-0.0299-0.31577-0.0128-0.12373-0.0299-0.26028-0.0384-0.3883-9e-3 -0.12802-9e-3 -0.2475-0.0128-0.34559-4e-3 -0.0981-0.0128-0.17497-0.0171-0.23897-4e-3 -0.064-4e-3 -0.11524-4e-3 -0.17073v-0.20907c0-0.0939 0-0.22188 0.0171-0.35846 0.017-0.13658 0.0512-0.28164 0.0853-0.40967s0.0683-0.23896 0.0981-0.32858c0.0299-0.0896 0.0555-0.15791 0.0848-0.22854 0.0293-0.0706 0.0623-0.14366 0.0993-0.2177 0.037-0.074 0.0779-0.14904 0.12224-0.21388 0.0443-0.0648 0.0921-0.11945 0.14328-0.18424 0.0511-0.0648 0.10572-0.13982 0.15692-0.19784 0.0512-0.058 0.099-0.099 0.15009-0.1535 0.0511-0.0545 0.1057-0.12276 0.16711-0.19441 0.0614-0.0717 0.12961-0.14666 0.19789-0.20469 0.0683-0.058 0.13646-0.0989 0.21148-0.14668 0.075-0.0477 0.1569-0.10233 0.22511-0.15007 0.0682-0.0478 0.12279-0.0887 0.2081-0.13304 0.0853-0.0444 0.20127-0.0921 0.30702-0.13986 0.10575-0.0478 0.2012-0.0955 0.2933-0.13642 0.0921-0.0409 0.18081-0.075 0.26949-0.10915 0.0887-0.0341 0.17737-0.0682 0.31388-0.0887s0.32067-0.0273 0.48781-0.0341c0.16715-7e-3 0.31721-0.0136 0.47753-0.0136 0.16032 1e-5 0.33086 7e-3 0.50143 0.0273 0.17057 0.0205 0.3411 0.0546 0.51507 0.10237 0.17396 0.0478 0.35131 0.10917 0.51163 0.17059 0.16032 0.0614 0.30356 0.1228 0.42636 0.18423 0.1228 0.0614 0.22511 0.1228 0.33766 0.19444 0.11255 0.0716 0.23535 0.1535 0.35813 0.24903 0.12277 0.0955 0.24556 0.20467 0.3308 0.29338 0.0853 0.0887 0.133 0.15694 0.20465 0.24903 0.0716 0.0921 0.16713 0.20804 0.27629 0.32741 0.10917 0.11937 0.23196 0.24216 0.32401 0.35816 0.0921 0.11601 0.15344 0.22514 0.20799 0.34111 0.0545 0.11597 0.10231 0.23877 0.13637 0.36837 0.0341 0.1296 0.0545 0.26603 0.0818 0.41612s0.0614 0.3138 0.0784 0.47409 0.017 0.31719 0.0238 0.49798c7e-3 0.18079 0.0205 0.38543 0.0273 0.56279 7e-3 0.17736 7e-3 0.32743 7e-3 0.48433 0 0.15691 0 0.32063-0.0171 0.48774s-0.0512 0.33763-0.10235 0.50132c-0.0512 0.1637-0.11939 0.32058-0.18417 0.44332-0.0648 0.12273-0.12621 0.21146-0.19101 0.29672-0.0648 0.0853-0.13301 0.16711-0.18759 0.23534-0.0546 0.0682-0.0955 0.1228-0.14326 0.18761-0.0478 0.0648-0.10233 0.13984-0.16027 0.2046-0.0579 0.0648-0.11938 0.11937-0.18762 0.19786-0.0682 0.0785-0.14328 0.1808-0.23533 0.26944-0.092 0.0886-0.2012 0.16368-0.30697 0.24897-0.10577 0.0853-0.20808 0.18079-0.32742 0.26945-0.11934 0.0887-0.25579 0.17053-0.39565 0.25581-0.13985 0.0853-0.28308 0.17394-0.42973 0.2558-0.14666 0.0819-0.29674 0.1569-0.46727 0.23534-0.17053 0.0785-0.36154 0.16032-0.53548 0.22853-0.17394 0.0682-0.33084 0.12279-0.50819 0.17737-0.17736 0.0546-0.3752 0.10915-0.58323 0.14668-0.20803 0.0375-0.42633 0.058-0.64118 0.0546-0.21486-3e-3 -0.42633-0.0307-0.59686-0.058-0.17054-0.0273-0.30015-0.0546-0.44341-0.0819-0.14327-0.0273-0.30017-0.0546-0.44684-0.0853-0.14668-0.0307-0.2831-0.0648-0.43318-0.10233-0.15008-0.0375-0.31379-0.0784-0.45704-0.12956-0.14324-0.0511-0.26605-0.11252-0.39907-0.18754-0.13303-0.075-0.2763-0.16371-0.42977-0.2558-0.15348-0.0921-0.31722-0.18761-0.49118-0.29675s-0.35815-0.23193-0.52529-0.35811c-0.16715-0.12619-0.31722-0.2558-0.47071-0.38541-0.15349-0.12962-0.31038-0.25923-0.49802-0.48091-0.18764-0.22167-0.40593-0.53547-0.53219-0.74353s-0.16036-0.31038-0.21491-0.43999c-0.05455-0.12962-0.12959-0.28652-0.21486-0.4673-0.08528-0.18077-0.18078-0.38542-0.24901-0.54232-0.06823-0.15691-0.10916-0.26604-0.15691-0.38884-0.04775-0.1228-0.10232-0.25923-0.15009-0.39225-0.04777-0.13303-0.0887-0.26264-0.11942-0.39567-0.03073-0.13304-0.05119-0.26948-0.0955-0.44683-0.04431-0.17736-0.11253-0.39565-0.14669-0.89026-0.03416-0.49461-0.03416-1.2654-0.0103-1.7771 0.02386-0.51167 0.07161-0.76407 0.17393-1.1563 0.10232-0.39227 0.25922-0.92436 0.44682-1.4224 0.1876-0.49802 0.40589-0.96189 0.64125-1.3849s0.48776-0.80499 0.81182-1.187c0.32406-0.38205 0.71971-0.76406 1.1291-1.0949 0.40934-0.33087 0.83227-0.61055 1.303-0.83568 0.47075-0.22513 0.9892-0.39567 1.784-0.4741 0.7948-0.0784 1.8658-0.0648 2.8584 0.11604s1.9067 0.52874 2.5275 0.85967c0.62076 0.33092 0.94819 0.64472 1.2347 0.98583 0.28648 0.34112 0.53206 0.70948 0.67523 1.0949 0.14317 0.38542 0.1841 0.78789 0.20455 1.0744 0.0204 0.2865 0.0204 0.45705-0.0375 0.43319-0.0579-0.0239-0.17404-0.24246-0.29001-0.46076-0.10915-0.12279-0.21805-0.2453-0.34083-0.3681-0.12278-0.12281-0.25921-0.2456-0.44339-0.38888-0.18417-0.14327-0.4161-0.30699-0.62075-0.44003s-0.38202-0.23537-0.54233-0.32747-0.30356-0.17395-0.46728-0.24902c-0.16371-0.0751-0.34791-0.14328-0.54916-0.19108-0.20126-0.0478-0.41956-0.0751-0.6515-0.10241-0.23194-0.0273-0.47752-0.0546-0.70948-0.0649-0.23196-0.0102-0.45025-3e-3 -0.69585 0.017-0.2456 0.0205-0.51847 0.0546-0.77432 0.11595-0.25584 0.0614-0.49462 0.15007-0.74021 0.24558-0.24559 0.0955-0.49799 0.19783-0.75726 0.34792-0.25928 0.15009-0.52532 0.34791-0.77775 0.56623s-0.49119 0.45707-0.7402 0.73336c-0.249 0.2763-0.50823 0.5901-0.72995 0.90052-0.22171 0.31041-0.40589 0.61738-0.57985 0.97897s-0.33768 0.77771-0.43317 1.1564c-0.09549 0.37866-0.12277 0.71974-0.12958 1.0472-0.0068 0.32746 0.0068 0.64126 0.02731 0.96189 0.02047 0.32063 0.04776 0.64807 0.12286 0.95166 0.0751 0.30358 0.19789 0.58327 0.40256 0.97211 0.20468 0.38884 0.49118 0.88682 0.9132 1.3477 0.42203 0.4609 0.97943 0.88479 1.258 1.0966 0.27856 0.21184 0.2786 0.21206 0.19342 0.16521z" fill="#808080"/>
  <g fill="#ff7f2a">
   <path id="template__1" d="m108.66 144.08c0.0551-0.0698 0.16528-0.20935 0.24607-0.32685 0.0808-0.1175 0.13222-0.21302 0.19467-0.31955 0.0624-0.10652 0.13591-0.22407 0.20202-0.33057 0.0661-0.1065 0.1249-0.20204 0.1763-0.29749 0.0514-0.0955 0.0955-0.191 0.13958-0.2755 0.0441-0.0845 0.0882-0.15796 0.12489-0.23141 0.0367-0.0735 0.0661-0.14689 0.1028-0.24238 0.0367-0.0955 0.0808-0.21303 0.1212-0.32323 0.0404-0.11019 0.0771-0.21303 0.11387-0.32689 0.0367-0.11386 0.0735-0.23873 0.1102-0.37464 0.0367-0.1359 0.0735-0.28281 0.0992-0.43706 0.0257-0.15424 0.0404-0.31587 0.0551-0.49584 0.0147-0.17998 0.0294-0.37833 0.0478-0.82278 0.0184-0.44444 0.0404-1.135 0.0258-1.5757-0.0147-0.44075-0.0661-0.63174-0.11016-0.80438-0.0441-0.17264-0.0808-0.32691-0.15056-0.52158-0.0698-0.19467-0.1726-0.42974-0.49578-0.84482-0.32318-0.41509-0.86679-1.0101-1.4985-1.4179-0.63175-0.4078-1.3517-0.62818-2.1561-0.73107s-1.6933-0.0882-2.5198 0.11748c-0.82654 0.20568-1.5905 0.60237-2.215 1.0909-0.62449 0.48857-1.1093 1.0689-1.506 1.7154-0.39671 0.64652-0.70524 1.3591-0.90358 2.0019-0.19834 0.64284-0.28649 1.2158-0.2938 1.7411-0.0073 0.52529 0.06615 1.0028 0.20944 1.5354 0.14329 0.53261 0.35632 1.1203 0.61718 1.5978 0.26086 0.47749 0.56938 0.84478 0.91836 1.1827 0.34898 0.33791 0.73832 0.64644 1.0836 0.83736 0.34528 0.19093 0.64648 0.26439 0.76392 0.20575 0.11743-0.0586 0.0512-0.24998-0.0149-0.44098-0.13223-0.16162-0.26423-0.32294-0.42216-0.50293-0.15794-0.17999-0.34159-0.37833-0.49221-0.56932-0.15063-0.19098-0.26817-0.37463-0.36742-0.72726-0.0992-0.35263-0.18006-0.8742-0.15439-1.3701 0.0257-0.49594 0.15789-0.96608 0.42605-1.4326s0.67219-0.92937 1.0763-1.2563 0.80814-0.51794 1.3702-0.59872c0.56207-0.0808 1.282-0.0514 1.9358 0.12497 0.65384 0.17638 1.2415 0.49961 1.6786 0.84127 0.43706 0.34166 0.72356 0.70161 0.92182 1.1644 0.19827 0.46282 0.30846 1.0285 0.37454 1.6308 0.0661 0.60238 0.0881 1.2415 0.0991 1.5609 0.011 0.31943 0.011 0.31945 0.0661 0.24968z"/>
   <path id="template__2" d="m108.29 132.75c-0.1872-0.18719-0.56186-0.56185-1.0283-0.93287-0.46647-0.37101-1.0248-0.73832-1.5537-1.0285-0.52892-0.2902-1.0285-0.50324-1.5758-0.63185-0.54731-0.12862-1.1423-0.17269-1.8807-0.0552-0.73836 0.11751-1.6199 0.39666-2.395 0.76765s-1.4436 0.83379-2.1268 1.5648c-0.68325 0.731-1.3811 1.7301-1.8329 2.7329s-0.65748 2.0092-0.74561 2.8688c-0.08813 0.85955-0.05875 1.5721-0.0073 2.1415 0.05144 0.56935 0.12485 0.99512 0.19831 1.4212-0.34527-0.58035-0.69036-1.1604-0.92916-1.6967-0.2388-0.53627-0.37103-1.0284-0.46289-1.5648-0.09186-0.53629-0.14328-1.1166-0.24249-0.98809-0.09921 0.12853-0.24613 0.96598-0.20566 1.7851 0.04047 0.81916 0.2682 1.6199 0.51066 2.2737 0.24246 0.65381 0.49958 1.1607 0.94042 1.6455 0.44084 0.4848 1.0653 0.9476 1.6713 1.245 0.60607 0.29744 1.1938 0.42967 1.3186 0.27918 0.12484-0.15049-0.2133-0.5842-0.55123-1.0176-0.19835-0.42608-0.39655-0.85184-0.56189-1.5718-0.16534-0.71995-0.29757-1.7337-0.2315-2.7549 0.06608-1.0212 0.33054-2.0496 0.79703-3.0084 0.4665-0.95875 1.135-1.8476 1.8991-2.5309 0.76408-0.68324 1.6236-1.1607 2.6815-1.4031 1.058-0.2424 2.3141-0.24973 3.35-0.0991 1.0358 0.15066 1.8512 0.45919 2.3397 0.60973 0.48849 0.15053 0.65011 0.1432 0.73079 0.13954 0.0807-4e-3 0.0807-4e-3 -0.10651-0.19093z"/>
  </g>
  <g fill="#999">
   <path id="template__3" d="m93.642 136.9c-0.1543 0.33063-0.46283 0.99178-0.66117 1.7228-0.19834 0.73101-0.28649 1.5317-0.22399 2.3656 0.06249 0.83384 0.27553 1.7007 0.60617 2.4904 0.33064 0.78972 0.77875 1.5023 1.3592 2.1304 0.58041 0.62806 1.293 1.1717 1.9027 1.5316 0.60975 0.35991 1.1166 0.53621 2.0569 0.61329 0.9403 0.0771 2.314 0.0551 3.0375 0.033 0.72355-0.0221 0.79686-0.044 0.87032-0.0661l-0.33058-0.22038c-0.26446-0.0588-0.52862-0.11747-1.131-0.43698-0.6024-0.3195-1.5427-0.89984-2.1782-1.3883s-0.96605-0.88516-1.1864-1.0763c-0.22039-0.19116-0.33081-0.17643-0.44101-0.16173-0.23508-0.11754-0.46984-0.23492-0.83349-0.49568-0.36366-0.26075-0.85584-0.66478-1.304-1.1937-0.44817-0.52889-0.8522-1.1827-1.1277-1.8218-0.27554-0.63912-0.42246-1.2635-0.49229-1.7852-0.06983-0.5216-0.06248-0.94033-0.01107-1.3518 0.0514-0.41142 0.1469-0.81545 0.19468-1.0176 0.04777-0.20211 0.04777-0.20216-0.10653 0.12848z"/>
   <path id="template__4" d="m103.85 130.31c-0.48485-0.19835-0.96938-0.39656-1.4763-0.5839-0.5069-0.18735-1.0358-0.36365-1.506-0.44085s-0.88157-0.0552-1.3995 0.044c-0.51795 0.0992-1.1424 0.27545-1.7375 0.5436-0.5951 0.26814-1.1607 0.6281-1.6346 1.0358s-0.85587 0.8632-1.1901 1.3848c-0.33427 0.52163-0.62077 1.1093-0.87421 1.708-0.25344 0.59874-0.47382 1.2085-0.59134 1.6824s-0.13221 0.8118-0.0036 1.5391c0.1286 0.72732 0.4004 1.8439 0.75676 2.7438 0.35636 0.89991 0.79712 1.5831 1.0616 1.9651s0.35237 0.46253 0.44053 0.54334l-0.15427-0.94766c-0.03673-0.53627-0.07344-1.0723-0.06979-1.8069 0.0037-0.73464 0.04773-1.6676 0.22035-2.5382 0.17262-0.87058 0.47381-1.6786 0.79337-2.3435 0.31957-0.66487 0.65749-1.1864 0.99176-1.6236 0.33427-0.43713 0.66484-0.78974 1.0763-1.1167 0.41143-0.32693 0.90362-0.62812 1.4656-0.89626 0.56202-0.26815 1.1938-0.50322 1.7632-0.63175s1.0763-0.15057 1.4105-0.1763c0.33423-0.0257 0.49564-0.0551 0.65726-0.0845v5e-5z"/>
  </g>
  <path id="template__5" d="m106.34 143.14a1.6402 1.7769 0 0 1-1.6402 1.7769 1.6402 1.7769 0 0 1-1.6402-1.7769 1.6402 1.7769 0 0 1 1.6402-1.7769 1.6402 1.7769 0 0 1 1.6402 1.7769z" fill="#ff7f2a" fill-rule="evenodd"/>
 </g>
</svg>
